Coordinates
version=1
nRows=8
nColumns=42
inDegrees=yes

Units are S.I. units (second, meters, Newtons, ...)
If the header above contains a line with 'inDegrees', this indicates whether rotational values are in degrees (yes) or radians (no).

endheader
time	pelvis_tilt	pelvis_list	pelvis_rotation	pelvis_tx	pelvis_ty	pelvis_tz	hip_flexion_r	hip_adduction_r	hip_rotation_r	knee_angle_r	knee_adduction_r	knee_angle_r_beta	ankle_angle_r	subtalar_angle_r	mtp_angle_r	hip_flexion_l	hip_adduction_l	hip_rotation_l	knee_angle_l	knee_adduction_l	knee_angle_l_beta	ankle_angle_l	subtalar_angle_l	mtp_angle_l	lumbar_extension	lumbar_bending	lumbar_rotation	arm_flex_r	arm_add_r	arm_rot_r	elbow_flex_r	pro_sup_r	wrist_flex_r	wrist_dev_r	arm_flex_l	arm_add_l	arm_rot_l	elbow_flex_l	pro_sup_l	wrist_flex_l	wrist_dev_l
      2.76000000	     -4.14605873	     -5.11413556	     -0.79755210	      0.52956461	      0.85196175	      0.21667611	     21.80703544	      5.94513137	      0.70864606	     18.84487825	      7.18414976	      0.32890517	      0.21425633	    -12.02004214	     -7.50024318	      4.40721840	    -12.69644526	      2.81050730	     54.52582381	     14.20657619	      0.95165515	     -8.89638467	    -14.38988048	     -7.50024318	     -5.46505147	      5.28274799	      0.34297050	    -10.13208307	    -24.50448707	     -2.37611854	     31.03708343	     90.00000001	      0.00000000	      0.00000000	     -4.92850531	    -13.99508438	    -12.80250643	     54.32189615	     90.00000001	      0.00000000	      0.00000000
      2.77000000	     -4.25688811	     -5.11573052	     -0.73467571	      0.54084334	      0.85346672	      0.21709081	     20.71869618	      5.87251299	      0.27928684	     18.22361247	      7.24242480	      0.31806204	      0.90496083	    -11.33238523	     -7.50023857	      6.50189969	    -12.75081833	      3.22068573	     57.22180187	     13.97458981	      0.99870885	     -8.11850363	    -14.78769406	     -7.50023857	     -5.37376064	      5.32090909	      0.73590813	     -9.77725810	    -24.68718984	     -2.32898934	     31.30357797	     90.00000001	      0.00000000	      0.00000000	     -5.28107370	    -13.66633671	    -12.83622063	     54.15831890	     90.00000001	      0.00000000	      0.00000000
      2.78000000	     -4.45972968	     -5.02877513	     -0.75970057	      0.55195020	      0.85479792	      0.21750572	     19.81464299	      5.73901633	     -0.73462348	     17.78738276	      7.09275835	      0.31044839	      2.01700699	     -9.17989801	     -7.50022061	      8.72381508	    -12.70021471	      3.13780914	     59.66503511	     13.46442868	      1.04135131	     -7.36380913	    -15.56176221	     -7.50022061	     -5.19417916	      5.25378849	      1.12506613	     -9.33324792	    -24.92925464	     -1.85191705	     31.68786390	     90.00000001	      0.00000000	      0.00000000	     -5.59027577	    -13.19595680	    -13.41658321	     53.71364723	     90.00000001	      0.00000000	      0.00000000
      2.79000000	     -4.61991866	     -4.87674369	     -0.69131181	      0.56297990	      0.85620621	      0.21780073	     18.69126801	      5.51924644	     -1.41796479	     16.96367592	      7.05399642	      0.29607200	      2.62058712	     -8.21232762	     -7.50021541	     10.89276480	    -12.54875783	      3.20719236	     61.66493074	     13.08914128	      1.07625607	     -6.16024618	    -15.84356805	     -7.50021541	     -5.05205893	      5.08578704	      1.49777617	     -8.88281589	    -25.05274577	     -1.77352860	     32.00832993	     90.00000001	      0.00000000	      0.00000000	     -5.94417218	    -12.94122078	    -13.40211514	     53.48568451	     90.00000001	      0.00000000	      0.00000000
      2.80000000	     -4.68744811	     -4.60614202	     -0.56285055	      0.57387878	      0.85765282	      0.21802211	     17.47984926	      5.10719646	     -2.21391842	     16.15666377	      7.13564905	      0.28198698	      3.11410877	     -7.35501958	     -7.50021179	     12.95498474	    -12.21334338	      3.26864799	     63.27009991	     12.70514244	      1.10427156	     -5.10540721	    -15.88622042	     -7.50021179	     -5.04779649	      4.74720561	      1.89027593	     -8.42846471	    -25.11636469	     -1.69498559	     32.33769466	     90.00000001	      0.00000000	      0.00000000	     -6.15852897	    -12.72876615	    -13.40935870	     53.27742624	     90.00000001	      0.00000000	      0.00000000
      2.81000000	     -4.72689129	     -4.29541743	     -0.56528186	      0.58499279	      0.85894078	      0.21822210	     16.48285701	      4.69992744	     -4.32405733	     15.93393922	      6.75501827	      0.27809970	      4.78765608	     -2.69205709	     -7.50019100	     14.88021630	    -11.86961088	      2.75451698	     64.51323079	     12.08906817	      1.12596829	     -3.54016250	    -15.80574614	     -7.50019100	     -4.99389265	      4.41525288	      2.27263080	     -7.93539334	    -25.39276743	     -0.89678068	     32.76757974	     90.00000001	      0.00000000	      0.00000000	     -6.33606437	    -12.32851065	    -13.87384085	     52.45395977	     90.00000001	      0.00000000	      0.00000000
      2.82000000	     -4.75630342	     -3.98833123	     -0.50582125	      0.59590168	      0.86021849	      0.21851081	     15.30967103	      4.31423632	     -5.33610409	     15.27077329	      6.70117026	      0.26652527	      5.52475398	     -0.83576424	     -7.50017093	     16.75337371	    -11.52808041	      2.66492062	     65.32996648	     11.88959990	      1.14022302	     -2.21242990	    -15.83209308	     -7.50017093	     -4.99619042	      4.02687418	      2.60026968	     -7.33565466	    -25.49522674	     -0.52990383	     33.20410419	     90.00000001	      0.00000000	      0.00000000	     -6.68252603	    -12.23050707	    -13.85343597	     52.16093609	     90.00000001	      0.00000000	      0.00000000
      2.83000000	     -4.79410101	     -3.68340984	     -0.43634182	      0.60674119	      0.86138957	      0.21877504	     14.11164006	      3.94951264	     -5.83533708	     14.49692319	      6.78513893	      0.25301904	      5.85684562	     -0.42294176	     -7.50016832	     18.59955746	    -11.14602976	      2.58216074	     65.80220661	     11.70553858	      1.14846516	     -1.22659052	    -15.77179378	     -7.50016832	     -4.99614184	      3.63877349	      2.95336551	     -6.74199132	    -25.51871205	     -0.48989447	     33.60180814	     90.00000001	      0.00000000	      0.00000000	     -7.00396125	    -12.10687948	    -13.82413556	     51.93282594	     90.00000001	      0.00000000	      0.00000000
